/* XPM */
static char *bitcoin___[] = {
/* columns rows colors chars-per-pixel */
"32 32 72 1 ",
"  c black",
". c #010101",
"X c #020202",
"o c gray1",
"O c #040404",
"+ c #060606",
"@ c #101010",
"# c #131313",
"$ c gray8",
"% c gray9",
"& c #191919",
"* c gray10",
"= c #1B1B1B",
"- c #1D1D1D",
"; c gray16",
": c #2A2A2A",
"> c gray18",
", c #2F2F2F",
"< c gray19",
"1 c #313131",
"2 c #393939",
"3 c #3F3F3F",
"4 c gray29",
"5 c #4B4B4B",
"6 c #565656",
"7 c #5A5A5A",
"8 c #5B5B5B",
"9 c gray37",
"0 c gray39",
"q c #646464",
"w c gray43",
"e c #747474",
"r c gray46",
"t c #7C7C7C",
"y c gray50",
"u c gray51",
"i c gray55",
"p c #8D8D8D",
"a c gray58",
"s c #9A9A9A",
"d c gray61",
"f c gray62",
"g c #A0A0A0",
"h c #AAAAAA",
"j c #B1B1B1",
"k c #B7B7B7",
"l c gray72",
"z c gray73",
"x c gray74",
"c c #C0C0C0",
"v c #C3C3C3",
"b c #C5C5C5",
"n c #C6C6C6",
"m c #C8C8C8",
"M c #CECECE",
"N c gray84",
"B c gray88",
"V c #E4E4E4",
"C c #E6E6E6",
"Z c gray91",
"A c #EAEAEA",
"S c #ECECEC",
"D c gray93",
"F c #EFEFEF",
"G c gray94",
"H c gray95",
"J c #F3F3F3",
"K c #F4F4F4",
"L c gray98",
"P c #FEFEFE",
"I c gray100",
"U c None",
/* pixels */
"UUUUUUUUUUUUUU    UUUUUUUUUUUUUU",
"UUUUUUUUUUU           UUUUUUUUUU",
"UUUUUUUUU               UUUUUUUU",
"UUUUUUU                  UUUUUUU",
"UUUUUU                    UUUUUU",
"UUUUU                      UUUUU",
"UUUU                        UUUU",
"UUUU                         UUU",
"UUU                   ,r:    UUU",
"UUU                O8sMIn     UU",
"UU             4fhcDIIIIBO    UU",
"UU        O -nCIIIIIDmp8$     UU",
"UU        *NGIIIIGa8$          U",
"U           lIIIIC$            U",
"U          2AIIICg#            U",
"U         uKIIky0              U",
"U        5LIAxp<:              U",
"U        lIG6 3,               U",
"UU       AID,                  U",
"UU      -IIIr                  U",
"UU      0IIIj                 UU",
"UU      ycfw*                 UU",
"UUU                          UUU",
"UUU                          UUU",
"UUUU                        UUUU",
"UUUUU                       UUUU",
"UUUUUU                     UUUUU",
"UUUUUUU                   UUUUUU",
"UUUUUUUU                UUUUUUUU",
"UUUUUUUUUU             UUUUUUUUU",
"UUUUUUUUUUUU        UUUUUUUUUUUU",
"UUUUUUUUUUUUUUUUUUUUUUUUUUUUUUUU"
};
