/* XPM */
static char *bitcoin___[] = {
/* columns rows colors chars-per-pixel */
"16 16 36 1 ",
"  c black",
". c gray2",
"X c #070707",
"o c gray4",
"O c #0B0B0B",
"+ c #111111",
"@ c #131313",
"# c gray8",
"$ c gray11",
"% c #222222",
"& c #252525",
"* c gray16",
"= c #3F3F3F",
"- c #464646",
"; c #4C4C4C",
": c gray33",
"> c #565656",
", c gray36",
"< c #767676",
"1 c #7B7B7B",
"2 c gray50",
"3 c gray51",
"4 c gray54",
"5 c #A2A2A2",
"6 c #B6B6B6",
"7 c gray74",
"8 c gray75",
"9 c #D5D5D5",
"0 c #DADADA",
"q c gray89",
"w c #F3F3F3",
"e c #F8F8F8",
"r c #FBFBFB",
"t c gray99",
"y c gray100",
"u c None",
/* pixels */
"uuuuuuuuuuuuuuuu",
"uuuuu      uuuuu",
"uuu          uuu",
"uu            uu",
"uu         *O uu",
"u      #,16w2  u",
"u    ;8ey74=.  u",
"u    +qy0O     u",
"u   #9q3%      u",
"u   <e&$       u",
"u   5y>        u",
"u   >-.        u",
"uu            uu",
"uuu           uu",
"uuuu        uuuu",
"uuuuu      uuuuu"
};
