/* XPM */
static char *bitcoin___[] = {
/* columns rows colors chars-per-pixel */
"64 64 77 1 ",
"  c #655D54",
". c #696157",
"X c #676058",
"o c #6C645C",
"O c #6F685F",
"+ c #71675E",
"@ c #71695F",
"# c #6E6860",
"$ c #746C63",
"% c #786F65",
"& c #766F69",
"* c #777067",
"= c #797166",
"- c #7C756B",
"; c #7F786E",
": c #80776D",
"> c #81796E",
", c #847D73",
"< c #887F76",
"1 c #867F78",
"2 c #878076",
"3 c #8A8176",
"4 c #878179",
"5 c #8C857A",
"6 c #8F887D",
"7 c #90877B",
"8 c #928A7E",
"9 c #8F8780",
"0 c #8F8981",
"q c #958D82",
"w c #988F84",
"e c #938D88",
"r c #979085",
"t c #9A9286",
"y c #979289",
"u c #9D958A",
"i c #9F988D",
"p c #9D9790",
"a c #9E9891",
"s c #A0978D",
"d c #A29A8D",
"f c #A39C94",
"g c #A59E98",
"h c #A7A097",
"j c #A6A19A",
"k c #AAA49C",
"l c #ADA7A0",
"z c #AEA9A3",
"x c #B2ACA5",
"c c #B4AFA8",
"v c #B6B1AC",
"b c #B9B4AD",
"n c #BBB6B1",
"m c #BDB9B4",
"M c #C1BCB6",
"N c #C2BEB9",
"B c #C5C1BD",
"V c #CAC4BE",
"C c #D0C7BF",
"Z c #C6C4C1",
"A c #CAC6C2",
"S c #CDC9C5",
"D c #CECCC9",
"F c #D2CCC6",
"G c #D2CECA",
"H c #D5D1CD",
"J c #DAD4CE",
"K c #D6D4D1",
"L c #DAD6D2",
"P c #DDDAD5",
"I c #DFDCD8",
"U c #E1DCD6",
"Y c #E1DDD9",
"T c #E5E1DD",
"R c #E7E4E0",
"E c #E8E5E1",
"W c None",
/* pixels */
"WWWWWWWWWWWWWWWWWWWWWWWWWWWWWWWWWWWWWWWWWWWWWWWWWWWWWWWWWWWWWWWW",
"WWWWWWWWWWWWWWWWWWWWWWWWWWWWWWWWWWWWWWWWWWWWWWWWWWWWWWWWWWWWWWWW",
"WWWWWWWWWWWWWWWWWWWWWWWWWWWWWWWWWWWWWWWWWWWWWWWWWWWWWWWWWWWWWWWW",
"WWWWWWWWWWWWWWWWWWWWWWWWWWWWWWWWWWWWWWWWWWWWWWWWWWWWWWWWWWWWWWWW",
"WWWWWWWWWWWWWWWWWWWWWWWWWWWWWWZGDDWWWWWWWWWWWWWWWWWWWWWWWWWWWWWW",
"WWWWWWWWWWWWWWWWWWWWWWWWWZFSFFFGFGHHJPPWWWWWWWWWWWWWWWWWWWWWWWWW",
"WWWWWWWWWWWWWWWWWWWWWWSGFSbhq1>--14pkVGHLJWWWWWWWWWWWWWWWWWWWWWW",
"WWWWWWWWWWWWWWWWWWWZGFVj4o..++-$&*#oXX*enFJGWWWWWWWWWWWWWWWWWWWW",
"WWWWWWWWWWWWWWWWWWHFMwoo#2wc4AtHyJ3yn5*o.&kFHAWWWWWWWWWWWWWWWWWW",
"WWWWWWWWWWWWWWWWPJVeo@*flLefrn.B0n%:P4Vt6*o&zHGWWWWWWWWWWWWWWWWW",
"WWWWWWWWWWWWWWWPHk$#-dvx;kM2Ok8r,gk-Sk%fNf<%o4NJDWWWWWWWWWWWWWWW",
"WWWWWWWWWWWWWWIGe#-,qgG9f q*-*%$@+%%5O*Vylug:%%vJPWWWWWWWWWWWWWW",
"WWWWWWWWWWWWWUF,*>tbH cp4$*,zkr35553;->i<qgMh<:$kPIWWWWWWWWWWWWW",
"WWWWWWWWWWWWIS,-4wJlnz;#255<3338utdd882%$9Npbu7<&aPTWWWWWWWWWWWW",
"WWWWWWWWWWWPD,,6w,;V4o$qt6ww738ddtwwdt8d9+&l>:8w5-jPYWWWWWWWWWWW",
"WWWWWWWWWWKJ4,wtt0$<%->>28iddddhdddudt885,*4=,wwy6&cIKWWWWWWWWWW",
"WWWWWWWWWHJd,wsuwh2566w8udddddddddddddd8w834yhhruu5-AIWWWWWWWWWW",
"WWWWWWWWWJn:6tuywrhi5tiddddddddddddddddddu63xvw8uit34JIWWWWWWWWW",
"WWWWWWWWGG25twwr8877widddddddddddhddddduuu82-->8rrur<kPWWWWWWWWW",
"WWWWWWWAJf2wtyMMurtuddddddddddddddddududttrq,236hi8w0,SPWWWWWWWW",
"WWWWWWWHF,8uranvd8ddddddddddddduuduuuutd888CBxdavnrur3aPWWWWWWWW",
"WWWWWWWJk3uur4jh3wddddddddduuutt8uttt888hbvh5-lrzv8wir<FHWWWWWWW",
"WWWWWWSJ48uur5;>8iddddddduudwwtwt888hcbci>@@$5n$542uuu5lPWWWWWWW",
"WWWWWWJm3tr8u88ruddddddutd8888ylMcbbd>==-8kzkib-;28ruu8qPAWWWWWW",
"WWWWWWPf8t8bmlriddddddtut8tlbvk5h@%%;rklkiuhfu23w6yfqwt5ZHWWWWWW",
"WWWWWSL6ww8nvx8idddddtdd8tnb%3dfc8hkhuphhi2@$=38wwmmk8u6cLWWWWWW",
"WWWWWHS5tt5pk68dddddutdFch%df5@.38:hgp,@%-2568ttt0nbj6twpUWWWWWW",
"WWWWWHn6su6,=3uddddddt33hi%823fhddd$@=23788tuiidu30p<qut6PSWWWWW",
"WWWWWJz8ttw66tiddhddu87>Oh--M7=;qhu2378duddudddddw,>5tut4JDWWWWW",
"WWWWWJg0t8gkwudddddddd87,z;=vfhu-od88utddddddddddur78tuu5AGWWWWW",
"WWWWWLfwwtMmjwddddditd8dV0,;@o@=jl53wudddhdddddddu8lctwu6BGWWWWW",
"WWWWZLdw8qbbp8ddddddt8bz;k823lzn5-28ddddddddddddduumnk8u8MGWWWWW",
"WWWWBLsrr32638ddddduwcu:==k2F-@u<38ddddddddddddddd7ccu6u6BHWWWWW",
"WWWWWPhrtr238uddddutdh>333Bxb2>z,ttddddddddddhdddd3222qu6VGWWWWW",
"WWWWWPkrtt88riddduu8v,37uv=.uxz36uuddddddddddddddd8758tu6FGWWWWW",
"WWWWWJcri8kmh8iddut8z275v>-;%%:7wdddddddhdddddhddd888tiu6JDWWWWW",
"WWWWWJBq87mnn6uduu8hrrc8x>887778dddddddddddddhddd8hMb8turIAWWWWW",
"WWWWWHG8i3hvf8iddt8b>x-zd88uttddddddddddddddddddd8cbn8rujIBWWWWW",
"WWWWWGUut6;-;8iiut7c*zud>k8ddddddddddddddhddddddd88xi2trnLWWWWWW",
"WWWWWWPlut8688uiut7x;=,=-x7udddddddddhddddddddhdd83->8uqFGWWWWWW",
"WWWWWWJVrut8ikrtuu7c33337b8tdddddddddddddddhddddu886wtypTAWWWWWW",
"WWWWWWGYuuwrmmlquutd7hbxl38uddddddhddddddddhddd8uvhwustnIWWWWWWW",
"WWWWWWWUvur6nvj8uutxh83:378tdddddhdddddhddddddd8vnm0tuwJDWWWWWWW",
"WWWWWWWHJut32e;qtt7333778tddddddddddddddddhdddd8gbz3ttcIBWWWWWWW",
"WWWWWWWZYbt8535888888tuuddddddddddddddddddddddt8;,-6utJHWWWWWWWW",
"WWWWWWWWJYdu888hbdttdddddddddddddddhddddddddtwt8656rtmIBWWWWWWWW",
"WWWWWWWWWIF8du8mbM7ddddddddddhdddddddddddddt8MMh8uuuhYGWWWWWWWWW",
"WWWWWWWWWDTbit3hbk7tduuuddddddddddddddddddtttbbk7uuuHPWWWWWWWWWW",
"WWWWWWWWWWHTjt7;::8tt8wuuddddddddddduuuww8ww,pg<8utVYBWWWWWWWWWW",
"WWWWWWWWWWWPYgt778twhb888tttuddddd8t8w878kh85,-3wuMTDWWWWWWWWWWW",
"WWWWWWWWWWWWPIhuuut8,Mk77788uuuu8888775<cMy6wwqttmTGWWWWWWWWWWWW",
"WWWWWWWWWWWWZIUkuut8:knc8lz8wt88883ucF6xqmf5ttuuBTGWWWWWWWWWWWWW",
"WWWWWWWWWWWWWWPTvttqmnlohC,zk7hnkkfCSF$v04p3tusGTGWWWWWWWWWWWWWW",
"WWWWWWWWWWWWWWWLRAs6-:z=sf$zl565>Jp5Nn+-k5-6tzUYZWWWWWWWWWWWWWWW",
"WWWWWWWWWWWWWWWWHYYx<=#,dy>bt<3,*V-p-d@%*>5sSRLZWWWWWWWWWWWWWWWW",
"WWWWWWWWWWWWWWWWWWKYJl5,-%:4w587,p6; .>55uBTYDWWWWWWWWWWWWWWWWWW",
"WWWWWWWWWWWWWWWWWWWZKYIMf65,<0tw5-->,3pvHRIGWWWWWWWWWWWWWWWWWWWW",
"WWWWWWWWWWWWWWWWWWWWWVHPTTGMvxxlkjkvVPTYLDWWWWWWWWWWWWWWWWWWWWWW",
"WWWWWWWWWWWWWWWWWWWWWWWWZHJIYRRRTTTYPHGWWWWWWWWWWWWWWWWWWWWWWWWW",
"WWWWWWWWWWWWWWWWWWWWWWWWWWWWWWZDZBWWWWWWWWWWWWWWWWWWWWWWWWWWWWWW",
"WWWWWWWWWWWWWWWWWWWWWWWWWWWWWWWWWWWWWWWWWWWWWWWWWWWWWWWWWWWWWWWW",
"WWWWWWWWWWWWWWWWWWWWWWWWWWWWWWWWWWWWWWWWWWWWWWWWWWWWWWWWWWWWWWWW",
"WWWWWWWWWWWWWWWWWWWWWWWWWWWWWWWWWWWWWWWWWWWWWWWWWWWWWWWWWWWWWWWW",
"WWWWWWWWWWWWWWWWWWWWWWWWWWWWWWWWWWWWWWWWWWWWWWWWWWWWWWWWWWWWWWWW"
};
