<?xml version="1.0" standalone="no"?>
<!DOCTYPE svg PUBLIC "-//W3C//DTD SVG 20010904//EN"
 "http://www.w3.org/TR/2001/REC-SVG-20010904/DTD/svg10.dtd">
<svg version="1.0" xmlns="http://www.w3.org/2000/svg"
 width="96.000000pt" height="96.000000pt" viewBox="0 0 96.000000 96.000000"
 preserveAspectRatio="xMidYMid meet">
<metadata>
Created by potrace 1.10, written by Peter Selinger 2001-2011
</metadata>
<g transform="translate(0.000000,96.000000) scale(0.100000,-0.100000)"
fill="#000000" stroke="none">
<path d="M350 904 c-88 -29 -136 -58 -196 -118 -66 -66 -85 -99 -115 -191 -33
-105 -20 -232 37 -345 23 -45 129 -151 174 -174 144 -72 296 -72 440 0 45 23
151 129 174 174 72 144 72 296 0 440 -23 45 -129 151 -174 174 -108 54 -247
70 -340 40z m368 -280 c30 -20 14 -50 -30 -59 -103 -19 -159 -40 -164 -62 -3
-12 -17 -29 -30 -38 -13 -8 -24 -22 -24 -30 0 -22 -41 -47 -56 -34 -7 6 -23 9
-36 7 -21 -3 -23 -8 -23 -57 0 -51 -2 -55 -30 -67 -16 -7 -42 -13 -57 -14 -33
0 -34 10 -13 90 14 52 50 99 86 112 12 5 12 9 1 28 -12 19 -12 25 0 35 19 18
136 55 177 56 20 0 65 11 101 23 36 13 67 24 70 25 3 0 16 -6 28 -15z"/>
</g>
</svg>
